<?xml version="1.0" encoding="UTF-8"?>
<!DOCTYPE svg PUBLIC "-//W3C//DTD SVG 1.0//EN" "http://www.w3.org/TR/2001/REC-SVG-20010904/DTD/svg10.dtd">
<!-- Creator: CorelDRAW -->
<svg xmlns="http://www.w3.org/2000/svg" xml:space="preserve" width="155px" height="155px" version="1.0" style="shape-rendering:geometricPrecision; text-rendering:geometricPrecision; image-rendering:optimizeQuality; fill-rule:evenodd; clip-rule:evenodd"
viewBox="0 0 107.111 107.111"
 xmlns:xlink="http://www.w3.org/1999/xlink"
 xmlns:xodm="http://www.corel.com/coreldraw/odm/2003">
 <defs>
  <style type="text/css">
   <![CDATA[
    .fil1 {fill:white}
    .fil0 {fill:#DC5B4A;fill-rule:nonzero}
   ]]>
  </style>
 </defs>
 <g id="Layer_x0020_1">
  <metadata id="CorelCorpID_0Corel-Layer"/>
  <path class="fil0" d="M10.986 0l85.139 0c6.066,0.001 10.985,4.92 10.985,10.986l0.001 85.139c-0.001,6.065 -4.92,10.984 -10.986,10.984l-85.139 0.002c-6.065,-0.002 -10.984,-4.921 -10.984,-10.987l-0.002 -85.138c0.002,-6.066 4.921,-10.985 10.988,-10.985z"/>
  <path class="fil1" d="M45.751 51.726l6.07 -6.07c0.954,-0.954 2.515,-0.954 3.469,0l6.07 6.07c0.954,0.954 0.954,2.515 0,3.469l-6.07 6.07c-0.954,0.954 -2.515,0.954 -3.469,0l-6.07 -6.07c-0.954,-0.954 -0.954,-2.515 0,-3.469zm10.48 -13.278l6.071 -6.07c0.954,-0.954 2.514,-0.954 3.469,0l6.07 6.07c0.954,0.954 0.954,2.515 0,3.469l-6.07 6.07c-0.955,0.954 -2.515,0.954 -3.469,0l-6.071 -6.07c-0.954,-0.954 -0.954,-2.515 0,-3.469zm0 26.746l6.071 -6.071c0.954,-0.954 2.514,-0.954 3.469,0l6.07 6.071c0.954,0.954 0.954,2.514 0,3.469l-6.07 6.07c-0.955,0.954 -2.515,0.954 -3.469,0l-6.071 -6.07c-0.954,-0.955 -0.954,-2.515 0,-3.469zm-31.329 -13.468l6.071 -6.07c0.953,-0.954 2.514,-0.954 3.468,0l6.07 6.07c0.955,0.954 0.955,2.515 0,3.469l-6.07 6.07c-0.954,0.954 -2.515,0.954 -3.468,0l-6.071 -6.07c-0.954,-0.954 -0.954,-2.515 0,-3.469zm10.481 -13.278l6.07 -6.07c0.954,-0.954 2.515,-0.954 3.469,0l6.07 6.07c0.954,0.954 0.954,2.515 0,3.469l-6.07 6.07c-0.954,0.954 -2.515,0.954 -3.469,0l-6.07 -6.07c-0.954,-0.954 -0.954,-2.515 0,-3.469zm0 26.746l6.07 -6.071c0.954,-0.954 2.515,-0.954 3.469,0l6.07 6.071c0.954,0.954 0.954,2.514 0,3.469l-6.07 6.07c-0.954,0.954 -2.515,0.954 -3.469,0l-6.07 -6.07c-0.954,-0.955 -0.954,-2.515 0,-3.469zm31.216 -13.468l6.071 -6.07c0.954,-0.954 2.514,-0.954 3.469,0l6.07 6.07c0.954,0.954 0.954,2.515 0,3.469l-6.07 6.07c-0.955,0.954 -2.515,0.954 -3.469,0l-6.071 -6.07c-0.954,-0.954 -0.954,-2.515 0,-3.469z"/>
 </g>
</svg>
